<mxfile host="app.diagrams.net" modified="2023-11-19T13:27:34.448Z" agent="Mozilla/5.0 (Windows NT 10.0; Win64; x64) AppleWebKit/537.36 (KHTML, like Gecko) Chrome/119.0.0.0 Safari/537.36" etag="JgerhkmRHkKQI0fasmWA" version="22.1.3" type="device">
  <diagram name="Страница — 1" id="JzDGhaq5XUVWNNhGS_V7">
    <mxGraphModel dx="1434" dy="1927" grid="1" gridSize="10" guides="1" tooltips="1" connect="1" arrows="1" fold="1" page="1" pageScale="1" pageWidth="827" pageHeight="1169" math="0" shadow="0">
      <root>
        <mxCell id="0" />
        <mxCell id="1" parent="0" />
        <mxCell id="cfAaLDG0v6eAPZpVpD1c-4" style="edgeStyle=orthogonalEdgeStyle;rounded=0;orthogonalLoop=1;jettySize=auto;html=1;entryX=0.5;entryY=0;entryDx=0;entryDy=0;" parent="1" source="cfAaLDG0v6eAPZpVpD1c-1" target="cfAaLDG0v6eAPZpVpD1c-2" edge="1">
          <mxGeometry relative="1" as="geometry">
            <Array as="points">
              <mxPoint x="715" />
              <mxPoint x="435" />
            </Array>
          </mxGeometry>
        </mxCell>
        <mxCell id="cfAaLDG0v6eAPZpVpD1c-1" value="Routing" style="rounded=0;whiteSpace=wrap;html=1;fillColor=#ffe6cc;strokeColor=#d79b00;" parent="1" vertex="1">
          <mxGeometry x="670" y="-200" width="90" height="40" as="geometry" />
        </mxCell>
        <mxCell id="cfAaLDG0v6eAPZpVpD1c-11" style="edgeStyle=orthogonalEdgeStyle;rounded=0;orthogonalLoop=1;jettySize=auto;html=1;entryX=0;entryY=0.5;entryDx=0;entryDy=0;" parent="1" source="cfAaLDG0v6eAPZpVpD1c-2" target="cfAaLDG0v6eAPZpVpD1c-7" edge="1">
          <mxGeometry relative="1" as="geometry" />
        </mxCell>
        <mxCell id="cfAaLDG0v6eAPZpVpD1c-12" style="edgeStyle=orthogonalEdgeStyle;rounded=0;orthogonalLoop=1;jettySize=auto;html=1;" parent="1" source="cfAaLDG0v6eAPZpVpD1c-2" target="cfAaLDG0v6eAPZpVpD1c-8" edge="1">
          <mxGeometry relative="1" as="geometry" />
        </mxCell>
        <mxCell id="cfAaLDG0v6eAPZpVpD1c-17" style="edgeStyle=orthogonalEdgeStyle;rounded=0;orthogonalLoop=1;jettySize=auto;html=1;" parent="1" source="cfAaLDG0v6eAPZpVpD1c-2" target="cfAaLDG0v6eAPZpVpD1c-10" edge="1">
          <mxGeometry relative="1" as="geometry" />
        </mxCell>
        <mxCell id="cfAaLDG0v6eAPZpVpD1c-18" style="edgeStyle=orthogonalEdgeStyle;rounded=0;orthogonalLoop=1;jettySize=auto;html=1;" parent="1" source="cfAaLDG0v6eAPZpVpD1c-2" target="cfAaLDG0v6eAPZpVpD1c-9" edge="1">
          <mxGeometry relative="1" as="geometry" />
        </mxCell>
        <mxCell id="cfAaLDG0v6eAPZpVpD1c-2" value="KanbanBoard" style="rounded=0;whiteSpace=wrap;html=1;fillColor=#d5e8d4;strokeColor=#82b366;" parent="1" vertex="1">
          <mxGeometry x="375" y="230" width="120" height="60" as="geometry" />
        </mxCell>
        <mxCell id="cfAaLDG0v6eAPZpVpD1c-6" style="edgeStyle=orthogonalEdgeStyle;rounded=0;orthogonalLoop=1;jettySize=auto;html=1;entryX=0;entryY=0.5;entryDx=0;entryDy=0;" parent="1" source="cfAaLDG0v6eAPZpVpD1c-5" target="cfAaLDG0v6eAPZpVpD1c-2" edge="1">
          <mxGeometry relative="1" as="geometry" />
        </mxCell>
        <mxCell id="cfAaLDG0v6eAPZpVpD1c-5" value="TaskContext" style="ellipse;whiteSpace=wrap;html=1;fillColor=#e1d5e7;strokeColor=#9673a6;" parent="1" vertex="1">
          <mxGeometry x="100" y="230" width="120" height="60" as="geometry" />
        </mxCell>
        <mxCell id="cfAaLDG0v6eAPZpVpD1c-7" value="TaskCreateModal" style="rounded=0;whiteSpace=wrap;html=1;fillColor=#ffe6cc;strokeColor=#d79b00;" parent="1" vertex="1">
          <mxGeometry x="610" y="180" width="140" height="60" as="geometry" />
        </mxCell>
        <mxCell id="cfAaLDG0v6eAPZpVpD1c-8" value="ContainerCreateModal" style="rounded=0;whiteSpace=wrap;html=1;fillColor=#ffe6cc;strokeColor=#d79b00;" parent="1" vertex="1">
          <mxGeometry x="610" y="290" width="140" height="60" as="geometry" />
        </mxCell>
        <mxCell id="cfAaLDG0v6eAPZpVpD1c-27" style="edgeStyle=orthogonalEdgeStyle;rounded=0;orthogonalLoop=1;jettySize=auto;html=1;" parent="1" source="cfAaLDG0v6eAPZpVpD1c-9" target="cfAaLDG0v6eAPZpVpD1c-25" edge="1">
          <mxGeometry relative="1" as="geometry" />
        </mxCell>
        <mxCell id="cfAaLDG0v6eAPZpVpD1c-9" value="TaskTable" style="rounded=0;whiteSpace=wrap;html=1;fillColor=#d5e8d4;strokeColor=#82b366;" parent="1" vertex="1">
          <mxGeometry x="480" y="410" width="120" height="60" as="geometry" />
        </mxCell>
        <mxCell id="cfAaLDG0v6eAPZpVpD1c-19" style="edgeStyle=orthogonalEdgeStyle;rounded=0;orthogonalLoop=1;jettySize=auto;html=1;entryX=1;entryY=0.5;entryDx=0;entryDy=0;" parent="1" source="cfAaLDG0v6eAPZpVpD1c-10" target="cfAaLDG0v6eAPZpVpD1c-16" edge="1">
          <mxGeometry relative="1" as="geometry" />
        </mxCell>
        <mxCell id="cfAaLDG0v6eAPZpVpD1c-10" value="Navbar" style="rounded=0;whiteSpace=wrap;html=1;fillColor=#d5e8d4;strokeColor=#82b366;" parent="1" vertex="1">
          <mxGeometry x="270" y="410" width="120" height="60" as="geometry" />
        </mxCell>
        <mxCell id="cfAaLDG0v6eAPZpVpD1c-13" value="&lt;h1&gt;&lt;font style=&quot;font-size: 16px;&quot;&gt;Todo:&lt;/font&gt;&lt;/h1&gt;&lt;div&gt;- Login page&lt;/div&gt;&lt;div&gt;- Calendar page&lt;/div&gt;" style="text;html=1;strokeColor=none;fillColor=none;spacing=5;spacingTop=-20;whiteSpace=wrap;overflow=hidden;rounded=0;" parent="1" vertex="1">
          <mxGeometry x="770" y="-240" width="190" height="80" as="geometry" />
        </mxCell>
        <mxCell id="cfAaLDG0v6eAPZpVpD1c-14" value="&lt;h1&gt;&lt;font style=&quot;font-size: 16px;&quot;&gt;Todo:&lt;/font&gt;&lt;/h1&gt;&lt;div&gt;- Color pick for container&lt;/div&gt;" style="text;html=1;strokeColor=none;fillColor=none;spacing=5;spacingTop=-20;whiteSpace=wrap;overflow=hidden;rounded=0;" parent="1" vertex="1">
          <mxGeometry x="760" y="170" width="190" height="80" as="geometry" />
        </mxCell>
        <mxCell id="cfAaLDG0v6eAPZpVpD1c-15" value="&lt;h1&gt;&lt;font style=&quot;font-size: 16px;&quot;&gt;Todo:&lt;/font&gt;&lt;/h1&gt;&lt;div&gt;- Deadline&lt;/div&gt;&lt;div&gt;- Priority&lt;/div&gt;" style="text;html=1;strokeColor=none;fillColor=none;spacing=5;spacingTop=-20;whiteSpace=wrap;overflow=hidden;rounded=0;" parent="1" vertex="1">
          <mxGeometry x="760" y="280" width="190" height="90" as="geometry" />
        </mxCell>
        <mxCell id="cfAaLDG0v6eAPZpVpD1c-16" value="ModalSettings" style="rounded=0;whiteSpace=wrap;html=1;fillColor=#d5e8d4;strokeColor=#82b366;" parent="1" vertex="1">
          <mxGeometry x="90" y="410" width="120" height="60" as="geometry" />
        </mxCell>
        <mxCell id="cfAaLDG0v6eAPZpVpD1c-21" style="edgeStyle=orthogonalEdgeStyle;rounded=0;orthogonalLoop=1;jettySize=auto;html=1;entryX=1;entryY=0.5;entryDx=0;entryDy=0;" parent="1" source="cfAaLDG0v6eAPZpVpD1c-20" target="cfAaLDG0v6eAPZpVpD1c-9" edge="1">
          <mxGeometry relative="1" as="geometry" />
        </mxCell>
        <mxCell id="cfAaLDG0v6eAPZpVpD1c-20" value="useDrag" style="ellipse;whiteSpace=wrap;html=1;fillColor=#e1d5e7;strokeColor=#9673a6;" parent="1" vertex="1">
          <mxGeometry x="700" y="410" width="120" height="60" as="geometry" />
        </mxCell>
        <mxCell id="cfAaLDG0v6eAPZpVpD1c-23" style="edgeStyle=orthogonalEdgeStyle;rounded=0;orthogonalLoop=1;jettySize=auto;html=1;entryX=0;entryY=0;entryDx=0;entryDy=0;" parent="1" source="cfAaLDG0v6eAPZpVpD1c-22" target="cfAaLDG0v6eAPZpVpD1c-2" edge="1">
          <mxGeometry relative="1" as="geometry">
            <Array as="points">
              <mxPoint x="180" y="180" />
              <mxPoint x="375" y="180" />
            </Array>
          </mxGeometry>
        </mxCell>
        <mxCell id="cfAaLDG0v6eAPZpVpD1c-22" value="SettingsContext" style="ellipse;whiteSpace=wrap;html=1;fillColor=#e1d5e7;strokeColor=#9673a6;" parent="1" vertex="1">
          <mxGeometry x="120" y="90" width="120" height="60" as="geometry" />
        </mxCell>
        <mxCell id="z4JN_qxwRkUhgE_tnp30-2" style="edgeStyle=orthogonalEdgeStyle;rounded=0;orthogonalLoop=1;jettySize=auto;html=1;entryX=0.5;entryY=0;entryDx=0;entryDy=0;" edge="1" parent="1" source="cfAaLDG0v6eAPZpVpD1c-25" target="z4JN_qxwRkUhgE_tnp30-1">
          <mxGeometry relative="1" as="geometry" />
        </mxCell>
        <mxCell id="cfAaLDG0v6eAPZpVpD1c-25" value="Container" style="rounded=0;whiteSpace=wrap;html=1;fillColor=#ffe6cc;strokeColor=#d79b00;" parent="1" vertex="1">
          <mxGeometry x="480" y="570" width="120" height="60" as="geometry" />
        </mxCell>
        <mxCell id="z4JN_qxwRkUhgE_tnp30-1" value="Task" style="rounded=0;whiteSpace=wrap;html=1;fillColor=#ffe6cc;strokeColor=#d79b00;" vertex="1" parent="1">
          <mxGeometry x="480" y="710" width="120" height="60" as="geometry" />
        </mxCell>
        <mxCell id="z4JN_qxwRkUhgE_tnp30-4" value="&lt;h1&gt;&lt;font style=&quot;font-size: 16px;&quot;&gt;Todo:&lt;/font&gt;&lt;/h1&gt;&lt;div&gt;- Description&lt;br&gt;- Sorting&lt;/div&gt;" style="text;html=1;strokeColor=none;fillColor=none;spacing=5;spacingTop=-20;whiteSpace=wrap;overflow=hidden;rounded=0;" vertex="1" parent="1">
          <mxGeometry x="620" y="555" width="190" height="90" as="geometry" />
        </mxCell>
        <mxCell id="z4JN_qxwRkUhgE_tnp30-5" value="&lt;h1&gt;&lt;font style=&quot;font-size: 16px;&quot;&gt;Todo:&lt;/font&gt;&lt;/h1&gt;&lt;div&gt;- Editing&lt;/div&gt;&lt;div&gt;- Deadline&lt;/div&gt;&lt;div&gt;- Priority&lt;/div&gt;" style="text;html=1;strokeColor=none;fillColor=none;spacing=5;spacingTop=-20;whiteSpace=wrap;overflow=hidden;rounded=0;" vertex="1" parent="1">
          <mxGeometry x="610" y="695" width="190" height="105" as="geometry" />
        </mxCell>
      </root>
    </mxGraphModel>
  </diagram>
</mxfile>
